<svg width="21" height="19" viewBox="0 0 21 19" fill="none" xmlns="http://www.w3.org/2000/svg">
<path d="M2.82198 18.5V5.6L0.871979 1.35L2.67198 0.5L5.02198 5.55H16.622L18.972 0.5L20.772 1.35L18.822 5.6V18.5H2.82198ZM8.82198 11.5H12.822C13.1053 11.5 13.343 11.404 13.535 11.212C13.727 11.02 13.8226 10.7827 13.822 10.5C13.822 10.2167 13.726 9.97933 13.534 9.788C13.342 9.59667 13.1046 9.50067 12.822 9.5H8.82198C8.53865 9.5 8.30131 9.596 8.10998 9.788C7.91865 9.98 7.82265 10.2173 7.82198 10.5C7.82198 10.7833 7.91798 11.021 8.10998 11.213C8.30198 11.405 8.53931 11.5007 8.82198 11.5Z" fill="black"/>
</svg>
