<svg width="24" height="24" viewBox="0 0 24 24" fill="none" xmlns="http://www.w3.org/2000/svg">
<path fill-rule="evenodd" clip-rule="evenodd" d="M8 1.25C8.41421 1.25 8.75 1.58579 8.75 2V2.75L15.25 2.75V2C15.25 1.58579 15.5858 1.25 16 1.25C16.4142 1.25 16.75 1.58579 16.75 2V2.78025C18.2859 2.90808 19.5038 3.44034 20.3621 4.36466C21.3464 5.42465 21.75 6.88503 21.75 8.5L21.75 17C21.75 18.615 21.3464 20.0754 20.3621 21.1353C19.3685 22.2054 17.893 22.75 16 22.75L8 22.75C6.10705 22.75 4.63152 22.2054 3.6379 21.1353C2.65363 20.0754 2.25 18.615 2.25 17L2.25 8.5C2.25 6.88503 2.65363 5.42465 3.6379 4.36466C4.4962 3.44034 5.71409 2.90808 7.25 2.78025V2C7.25 1.58579 7.58579 1.25 8 1.25ZM7.25 5V4.28628C6.06502 4.40668 5.26412 4.81778 4.7371 5.38534C4.12129 6.04852 3.77739 7.03463 3.75157 8.33997L20.2484 8.33997C20.2226 7.03463 19.8787 6.04852 19.2629 5.38534C18.7359 4.81778 17.935 4.40668 16.75 4.28628V5C16.75 5.41421 16.4142 5.75 16 5.75C15.5858 5.75 15.25 5.41421 15.25 5V4.25L8.75 4.25V5C8.75 5.41421 8.41421 5.75 8 5.75C7.58579 5.75 7.25 5.41421 7.25 5ZM3.75 17L3.75 9.83997L20.25 9.83997L20.25 17C20.25 18.385 19.9036 19.4246 19.2629 20.1147C18.6315 20.7946 17.607 21.25 16 21.25L8 21.25C6.39295 21.25 5.36848 20.7946 4.7371 20.1147C4.09637 19.4246 3.75 18.385 3.75 17ZM11.9955 12.7C11.4432 12.7 10.9955 13.1477 10.9955 13.7C10.9955 14.2522 11.4432 14.7 11.9955 14.7H12.0045C12.5568 14.7 13.0045 14.2522 13.0045 13.7C13.0045 13.1477 12.5568 12.7 12.0045 12.7H11.9955ZM7.29431 13.7C7.29431 13.1477 7.74203 12.7 8.29431 12.7H8.30329C8.85558 12.7 9.30329 13.1477 9.30329 13.7C9.30329 14.2522 8.85558 14.7 8.30329 14.7H8.29431C7.74203 14.7 7.29431 14.2522 7.29431 13.7ZM8.29431 15.7C7.74203 15.7 7.29431 16.1477 7.29431 16.7C7.29431 17.2522 7.74203 17.7 8.29431 17.7H8.30329C8.85558 17.7 9.30329 17.2522 9.30329 16.7C9.30329 16.1477 8.85558 15.7 8.30329 15.7H8.29431Z" fill="#333333"/>
</svg>
