<svg width="14" height="18" viewBox="0 0 14 18" fill="none" xmlns="http://www.w3.org/2000/svg">
<path opacity="0.5" d="M6.91636 0.465569C4.62061 0.465569 2.75286 2.34715 2.75286 4.65991V6.33764H1.92016C1.0017 6.33764 0.254765 7.09011 0.254765 8.01538V15.5652C0.254765 16.4905 1.0017 17.2429 1.92016 17.2429H11.9126C12.831 17.2429 13.578 16.4905 13.578 15.5652V8.01538C13.578 7.09011 12.831 6.33764 11.9126 6.33764H11.0799V4.65991C11.0799 2.34715 9.21211 0.465569 6.91636 0.465569ZM4.41826 4.65991C4.41826 3.27242 5.53908 2.1433 6.91636 2.1433C8.29365 2.1433 9.41446 3.27242 9.41446 4.65991V6.33764H4.41826V4.65991ZM11.9142 15.5652H7.74906V13.6542C8.24452 13.3632 8.58176 12.828 8.58176 12.2097C8.58176 11.2844 7.83483 10.532 6.91636 10.532C5.99789 10.532 5.25096 11.2844 5.25096 12.2097C5.25096 12.8271 5.58821 13.3632 6.08366 13.6542V15.5652H1.92016V8.01538H11.9126L11.9142 15.5652Z" fill="#03014C"/>
</svg>
