<svg width="16" height="17" viewBox="0 0 16 17" fill="none" xmlns="http://www.w3.org/2000/svg">
<path opacity="0.5" d="M7.91636 0.384399C5.62061 0.384399 3.75286 2.26598 3.75286 4.57874C3.75286 6.8915 5.62061 8.77308 7.91636 8.77308C10.2121 8.77308 12.0799 6.8915 12.0799 4.57874C12.0799 2.26598 10.2121 0.384399 7.91636 0.384399ZM7.91636 7.09534C6.53908 7.09534 5.41826 5.96623 5.41826 4.57874C5.41826 3.19125 6.53908 2.06213 7.91636 2.06213C9.29365 2.06213 10.4145 3.19125 10.4145 4.57874C10.4145 5.96623 9.29365 7.09534 7.91636 7.09534ZM15.4107 16.3229V15.484C15.4107 12.2468 12.7951 9.61195 9.58176 9.61195H6.25096C3.03674 9.61195 0.422066 12.2468 0.422066 15.484V16.3229H2.08746V15.484C2.08746 13.1713 3.95521 11.2897 6.25096 11.2897H9.58176C11.8775 11.2897 13.7453 13.1713 13.7453 15.484V16.3229H15.4107Z" fill="#03014C"/>
</svg>
